<svg width="54" height="62" viewBox="0 0 54 62" fill="none" xmlns="http://www.w3.org/2000/svg">
<path d="M49.1245 13.8319C48.7144 13.6752 48.2874 13.6073 47.8933 13.6347C47.3238 13.6743 46.8638 13.9056 46.5914 14.284C44.9865 16.5321 43.6721 20.7777 42.6122 24.1889C42.1257 25.7665 41.4727 27.8776 40.9998 28.8796C40.5065 26.0724 41.0637 15.7893 41.2798 11.8293L41.2833 11.7653C41.4332 9.01398 41.4533 8.53155 41.4205 8.31966C41.1824 6.81044 40.5776 5.81978 39.6221 5.37635C38.6561 4.92667 37.4016 5.12562 36.0501 5.9388C35.3726 6.34852 35.1852 7.75491 34.6036 14.1296L34.6015 14.1576C34.2813 17.6598 33.5442 25.7236 32.6371 27.0665C31.6137 25.1876 30.2057 14.5124 29.5979 9.89169C29.1726 6.65553 28.9249 4.7974 28.7585 4.23631C28.4079 3.06059 26.928 2.06016 25.4626 2.00473C24.2429 1.9442 23.2421 2.56462 22.7644 3.64264C21.8709 4.63701 22.1866 7.9346 23.1743 15.7448C23.6444 19.4618 24.6149 27.1398 24.0041 28.001C22.7864 27.8687 20.6958 23.0593 17.7897 13.7025C16.9744 11.0821 16.722 10.2939 16.4715 9.94892C15.9779 8.74726 14.3002 7.82039 12.796 7.9251C12.6675 7.93405 12.5426 7.9507 12.4193 7.97424C11.6319 8.13063 9.8351 8.85535 10.2181 12.2C11.2791 16.8369 12.4316 20.2415 13.5501 23.546L13.5727 23.6121C14.2419 25.5914 14.8745 27.4615 15.4624 29.537C16.848 34.4372 16.3092 37.4776 16.3026 37.5118C16.2566 37.8248 16.1599 38.0158 16.0146 38.0826C15.9623 38.1072 15.8953 38.1218 15.8197 38.1271C15.3806 38.1576 14.722 37.8669 14.3825 37.6774C13.6072 36.1956 9.74672 29.1331 6.24863 28.1536L6.12296 28.1165L5.99579 28.1283C4.71278 28.2495 3.76941 28.7344 3.19288 29.5694C2.27927 30.8898 2.65745 32.5716 2.74919 32.9088L2.80075 33.0297C2.82931 33.0805 5.63458 38.1946 6.06874 40.5736C6.44313 42.6131 8.38011 44.8237 9.93741 46.5997L10.0016 46.6719C10.5096 47.2531 10.948 47.7553 11.2938 48.2202C15.8125 52.9332 22.9587 56.8976 23.0169 56.9294C23.9085 57.5874 24.4044 58.2231 24.4567 58.7704C24.4899 59.1286 24.3038 59.3428 24.2973 59.3501L24.1417 59.5124L25.1295 60.4724L43.983 59.1479L44.7868 55.4648C47.2724 45.0623 46.7535 36.1927 46.7453 36.1335C46.7544 35.8071 47.4511 32.6513 48.0113 30.1015L48.0278 30.0367C49.1445 24.9572 50.5334 18.6369 50.7997 16.233C50.9156 15.2052 50.258 14.261 49.1245 13.8319Z" fill="#3B4262"/>
</svg>
