<svg width="55" height="55" viewBox="0 0 55 55" fill="none" xmlns="http://www.w3.org/2000/svg">
<path d="M49.0603 16.2197C48.4184 8.12461 39.3264 8.95116 39.3264 8.95116C35.4887 2.18651 29.4937 7.08629 29.4937 7.08629C24.8881 0.456451 19.1134 6.60003 19.1134 6.60003C9.1569 5.52638 9.54281 13.6664 9.54281 13.6664C9.3085 16.254 10.946 24.2596 10.946 24.2596C9.4689 19.6455 6.26504 23.4756 6.26504 23.4756C2.32637 29.5534 5.29122 32.8803 5.29122 32.8803C10.6208 39.1266 21.9788 46.6231 21.9788 46.6231C26.0914 48.9791 24.3519 51.0799 24.3519 51.0799L49.2275 46.9697L49.7994 42.2524C53.5808 30.8158 49.0603 16.2197 49.0603 16.2197Z" fill="#3B4262"/>
</svg>
